# xmcd
# 
# Track frame offsets:
#     182
#     12855
#     31562
#     44950
#     59547
#     77200
#     89792
#     108347
#     122207
#     137172
#     150752
# 
# Disc length: 2197
# 
# Revision: 19
# Processed by: cddbd v1.5.2PL0 Copyright (c) Steve Scherf et al.
# Submitted via: fre:ac v1.0.31
# 
DISCID=8e08930b
DTITLE=Linda Ronstadt - Prisoner In Disguise
DYEAR=1975
DGENRE=Rock/Pop
TTITLE0=Love Is a Rose
TTITLE1=Hey Mister, That's Me Up On the Jukebox
TTITLE2=Roll Um Easy
TTITLE3=Tracks of My Tears
TTITLE4=Prisoner In Disguise
TTITLE5=Heat Wave
TTITLE6=Many Rivers to Cross
TTITLE7=The Sweetest Gift
TTITLE8=You Tell Me That I'm Falling Down
TTITLE9=I Will Always Love You
TTITLE10=Silver Blue
EXTD=YEAR: 1975
EXTT0=
EXTT1=
EXTT2=
EXTT3=
EXTT4=
EXTT5=
EXTT6=
EXTT7=
EXTT8=
EXTT9=
EXTT10=
PLAYORDER=
